<svg width="20" height="20" viewBox="0 0 20 20" fill="none" xmlns="http://www.w3.org/2000/svg">
<path d="M7.76935 4.62756C8.55595 2.66656 8.94925 1.68607 9.62558 1.68607C10.3019 1.68607 10.6952 2.66657 11.4818 4.62757L11.5184 4.71888C11.9628 5.82675 12.185 6.38068 12.6379 6.71737C13.0907 7.05406 13.6852 7.1073 14.8741 7.21377L15.089 7.23302C17.0349 7.40729 18.0078 7.49442 18.2159 8.1134C18.4241 8.73239 17.7016 9.38973 16.2566 10.7044L15.7743 11.1432C15.0428 11.8087 14.677 12.1415 14.5065 12.5776C14.4747 12.659 14.4483 12.7423 14.4274 12.8271C14.3153 13.2818 14.4225 13.7645 14.6367 14.73L14.7033 15.0305C15.097 16.8048 15.2938 17.692 14.9502 18.0747C14.8217 18.2177 14.6548 18.3206 14.4694 18.3712C13.9732 18.5066 13.2687 17.9326 11.8598 16.7845C10.9346 16.0306 10.472 15.6536 9.94093 15.5688C9.73202 15.5355 9.51914 15.5355 9.31024 15.5688C8.77913 15.6536 8.31655 16.0306 7.39138 16.7845C5.98242 17.9326 5.27795 18.5066 4.78175 18.3712C4.59633 18.3206 4.42942 18.2177 4.301 18.0747C3.95732 17.692 4.15415 16.8048 4.54783 15.0305L4.6145 14.73C4.82871 13.7645 4.93582 13.2818 4.82376 12.8271C4.80286 12.7423 4.77642 12.659 4.74462 12.5776C4.57415 12.1415 4.2084 11.8087 3.47689 11.1432L2.99461 10.7044C1.54956 9.38973 0.827042 8.73239 1.03522 8.1134C1.2434 7.49442 2.21631 7.40729 4.16212 7.23302L4.37706 7.21377C5.56597 7.1073 6.16043 7.05406 6.61328 6.71737C7.06613 6.38068 7.28833 5.82675 7.73272 4.71888L7.76935 4.62756Z" stroke="#FEC54E" stroke-width="2"/>
</svg>
