<?xml version="1.0" encoding="UTF-8"?><svg id="Layer_2" xmlns="http://www.w3.org/2000/svg" viewBox="0 0 892 281.11"><defs><style>.cls-1{fill:#000;stroke-width:0px;}</style></defs><g id="Layer_1-2"><polygon class="cls-1" points="720.18 165.46 715.21 199.28 725.34 199.28 720.37 165.46 720.18 165.46"/><path class="cls-1" d="M702.05,113.75v-41.73c0-5.73-2.41-7.8-6.42-7.8h-7.11v57.33h7.11c4.01,0,6.42-2.06,6.42-7.8Z"/><polygon class="cls-1" points="648.91 165.46 643.95 199.28 654.07 199.28 649.1 165.46 648.91 165.46"/><path class="cls-1" d="M849.69,0H0l.12,181.09,65.66,71.58h329.97l21,28.45h475.26V59.13L849.69,0ZM732.09,52.75h18.46l12.84,80.26h-12.73l-2.18-14.56h-15.48l-2.18,14.56h-11.58l12.84-80.26ZM675.91,52.75h19.95c12.61,0,18.8,6.99,18.8,19.84v40.59c0,12.84-6.19,19.84-18.8,19.84h-19.95V52.75ZM566.77,81.72h-15.02v-10.83c0-7.22-3.18-9.97-8.23-9.97s-8.23,2.74-8.23,9.97v54.6c0,7.22,3.18,9.82,8.23,9.82s8.23-2.6,8.23-9.82v-18.63h-7.22v-14.45h22.25v32.07c0,16.18-8.09,25.42-23.69,25.42s-23.69-9.25-23.69-25.42v-52.58c0-16.18,8.09-25.42,23.69-25.42s23.69,9.25,23.69,25.42v9.82ZM580.75,52.75h12.61v61.91c0,5.73,2.52,7.8,6.54,7.8s6.54-2.06,6.54-7.8v-61.91h11.92v61.11c0,12.84-6.42,20.18-18.8,20.18s-18.8-7.34-18.8-20.18v-61.11ZM623.73,177.75h-12.52v-9.03c0-6.02-2.65-8.3-6.86-8.3s-6.86,2.29-6.86,8.3v45.5c0,6.02,2.65,8.18,6.86,8.18s6.86-2.17,6.86-8.18v-15.53h-6.02v-12.04h18.54v26.72c0,13.48-6.74,21.18-19.74,21.18s-19.74-7.7-19.74-21.18v-43.81c0-13.48,6.74-21.18,19.74-21.18s19.74,7.7,19.74,21.18v8.18ZM626.84,52.75h15.82l12.73,48.04h.23v-48.04h11.24v80.26h-12.96l-15.48-58.13h-.23v58.13h-11.35V52.75ZM657.32,220.49l-1.82-12.13h-12.9l-1.81,12.13h-9.65l10.7-66.87h15.38l10.7,66.87h-10.6ZM700.6,220.49h-27.8v-66.87h10.51v57.32h17.29v9.55ZM728.59,220.49l-1.82-12.13h-12.9l-1.81,12.13h-9.65l10.7-66.87h15.38l10.7,66.87h-10.6ZM768.81,220.49l-8.5-26.46h-.19l-8.6,26.46h-9.84l11.75-34.39-10.99-32.48h10.89l7.83,24.65h.19l8.03-24.65h9.74l-10.99,32.48,11.75,34.39h-11.08ZM805.5,198.33v22.16h-10.51v-22.16l-13.28-44.71h10.99l7.93,30.48h.19l7.93-30.48h10.03l-13.28,44.71ZM822.1,133.01h-11.92v-57.56h-.23l-8.48,57.56h-11.92l-9.17-56.75h-.23v56.75h-11.01V52.75h17.54l9.17,56.98h.23l8.48-56.98h17.54v80.26Z"/><polygon class="cls-1" points="740.81 66.97 740.58 66.97 734.62 107.56 746.77 107.56 740.81 66.97"/></g></svg>