<?xml version="1.0" encoding="UTF-8"?><svg id="Layer_2" xmlns="http://www.w3.org/2000/svg" viewBox="0 0 228 289.72"><defs><style>.cls-1{fill:#fec54e;}.cls-1,.cls-2{stroke-width:0px;}.cls-2{fill:#af8437;}</style></defs><g id="Layer_1-2"><path class="cls-1" d="M224.72,131.58c-2.06-.75-4.38-.07-5.7,1.68-39.77,52.49-73.5,69.02-87.2,73.9l7.76-68.15,84.64-21.16c2.24-.56,3.8-2.57,3.79-4.88-.01-2.3-1.6-4.3-3.84-4.84l-85.02-20.29L118.86,3.83c-.54-2.25-2.55-3.83-4.86-3.83s-4.32,1.58-4.86,3.83l-20.28,84.02L3.84,108.14C1.6,108.67.01,110.67,0,112.97c-.01,2.3,1.55,4.32,3.79,4.88l84.64,21.16,7.76,68.14c-13.72-4.88-47.45-21.42-87.2-73.9-1.33-1.75-3.64-2.43-5.7-1.68-2.06.75-3.39,2.77-3.28,4.96.13,2.41,4.25,59.37,103.56,124.54l5.55,24.74c.51,2.28,2.54,3.9,4.88,3.9s4.37-1.62,4.88-3.9l5.55-24.74c99.31-65.17,103.43-122.13,103.56-124.54.12-2.19-1.21-4.21-3.28-4.96Z"/><path class="cls-2" d="M223.3,114.21s.07-.03.1-.04c.06-.02.11-.04.16-.07.08-.04.16-.09.23-.15.04-.04.09-.07.12-.11.07-.07.12-.16.16-.24.02-.05.05-.09.07-.13.05-.13.08-.27.08-.42,0-.01,0-.02,0-.03,0,0,0,0,0,0,0,0,0,0,0,0,0-.16-.04-.31-.09-.45-.02-.05-.05-.08-.07-.13-.05-.09-.1-.17-.17-.25-.04-.04-.08-.08-.12-.11-.07-.06-.15-.11-.23-.15-.05-.03-.11-.05-.17-.07-.04-.01-.07-.04-.11-.05l-87.25-20.82L115.22,4.71s-.03-.07-.05-.11c-.02-.06-.04-.11-.07-.17-.04-.08-.09-.16-.15-.23-.04-.04-.07-.09-.11-.12-.07-.07-.16-.12-.25-.17-.04-.02-.08-.05-.13-.07-.14-.06-.29-.09-.45-.09s-.31.04-.45.09c-.05.02-.09.05-.13.07-.09.05-.17.1-.25.17-.04.04-.08.08-.11.12-.06.07-.11.15-.15.23-.03.05-.05.11-.07.17-.01.04-.04.07-.05.11l-20.82,86.26L4.71,111.78s-.07.03-.11.05c-.06.02-.11.04-.17.07-.08.04-.16.09-.23.15-.04.04-.09.07-.12.11-.07.08-.12.16-.17.25-.02.04-.05.08-.07.13-.06.14-.09.29-.09.45,0,0,0,0,0,0,0,0,0,0,0,0,0,.01,0,.02,0,.03,0,.15.03.29.08.42.02.05.05.09.07.13.05.09.1.17.16.24.04.04.08.08.12.11.07.06.15.11.23.15.05.03.11.05.16.07.04.01.06.04.1.04l87.16,21.79,8.7,76.41c-8.31-2.05-47.39-14.62-94.56-76.89-.03-.04-.07-.06-.1-.09-.04-.04-.08-.08-.12-.12-.08-.06-.16-.11-.24-.15-.05-.02-.09-.05-.14-.07-.13-.04-.26-.06-.39-.06-.03,0-.05,0-.08,0-.12,0-.24.03-.35.07-.02,0-.03.02-.05.03-.01,0-.03,0-.04.01-.03.01-.05.04-.08.06-.1.05-.18.11-.26.19-.04.04-.07.07-.1.11-.06.08-.11.17-.16.26-.02.04-.04.08-.06.13-.04.11-.05.23-.06.35,0,.03-.01.06,0,.09,0,0,0,0,0,.02.03.59.92,14.74,14.17,37.06,12.12,20.41,37.39,51.76,88.97,85.37l5.89,26.23c.13.57.63.98,1.22.98s1.09-.41,1.22-.98l5.89-26.23c51.57-33.6,76.84-64.96,88.97-85.37,13.25-22.31,14.14-36.47,14.17-37.06,0,0,0,0,0-.02,0-.03,0-.06,0-.09,0-.12-.02-.24-.06-.35-.02-.05-.04-.08-.06-.13-.04-.09-.09-.18-.16-.26-.03-.04-.07-.08-.1-.11-.08-.07-.16-.14-.26-.19-.03-.02-.05-.04-.08-.06-.01,0-.03,0-.04,0-.02,0-.03-.02-.05-.03-.11-.04-.23-.06-.35-.07-.04,0-.07,0-.11,0-.12,0-.25.02-.37.06-.05.02-.1.05-.15.07-.08.04-.16.08-.23.14-.05.04-.09.08-.13.12-.03.03-.07.05-.09.09-47.18,62.27-86.26,74.83-94.56,76.89l8.7-76.41,87.16-21.79ZM112.75,273.45l-3.46-15.43,3.46-13.31v28.74ZM92.61,133.61L15.15,114.25h96.37l-18.91,19.36ZM115.25,15.51l18.37,76.12-18.37,18.81V15.51ZM135.4,93.38l76.98,18.37h-94.92l17.94-18.37ZM93.29,93.22c.46-.11.81-.47.92-.92L112.75,15.51v96.24H15.62l77.67-18.53ZM101.81,215.24c.39.05.77-.07,1.05-.34s.42-.65.37-1.04l-8.93-78.41,18.44-18.88v116.75c-36.05-9.57-62.95-35.22-79.24-55.22-9.17-11.25-16.08-21.99-20.67-29.85,49.43,60.4,87.3,66.73,88.97,66.98ZM20.2,172.33c-7.04-11.82-10.54-21.37-12.28-27.68,4.39,7.98,12.31,21.1,23.61,34.98,16.59,20.37,44.04,46.53,80.95,56.2l-5.25,20.16c-50.34-33-75.11-63.67-87.03-83.66ZM207.8,172.33c-12.04,20.19-37.16,51.26-88.48,84.62-.27.18-.47.46-.54.77l-3.53,15.72v-37.54c37.05-9.62,64.59-35.86,81.22-56.28,11.3-13.88,19.22-27,23.61-34.98-1.73,6.31-5.23,15.87-12.28,27.68ZM215.16,148.25c-4.59,7.85-11.5,18.6-20.67,29.85-16.09,19.75-42.53,45.01-77.91,54.86l10.22-17.83c5.28-1.01,41.65-9.8,88.37-66.88ZM133.76,134.86l-8.97,78.74-9.54,16.65v-116h97.6l-78.15,19.54c-.51.13-.88.55-.94,1.07Z"/></g></svg>